<?xml version="1.0" encoding="UTF-8" ?>
<!DOCTYPE svg PUBLIC "-//W3C//DTD SVG 1.1//EN" "http://www.w3.org/Graphics/SVG/1.1/DTD/svg11.dtd">
<svg width="60pt" height="60pt" viewBox="0 0 60 60" version="1.1" xmlns="http://www.w3.org/2000/svg">
<g id="#8b8c91fd">
<path fill="#8b8c91" opacity="1.00" d=" M 0.00 0.00 L 60.00 0.00 L 60.00 60.00 L 0.00 60.00 L 0.00 0.00 M 3.05 3.06 C 3.06 21.02 3.06 38.98 3.05 56.94 C 21.02 56.95 38.98 56.94 56.95 56.94 C 56.94 38.98 56.94 21.02 56.95 3.06 C 38.98 3.06 21.02 3.05 3.05 3.06 Z" />
</g>
<g id="#bf17a0ff">
<path fill="#bf17a0" opacity="1.00" d=" M 14.95 20.86 C 19.09 18.78 24.50 19.60 27.98 22.62 C 27.01 23.85 26.05 25.08 25.09 26.31 C 22.66 24.99 18.83 22.92 16.88 26.12 C 20.04 27.91 23.94 27.94 26.86 30.17 C 29.89 32.86 28.41 38.38 24.75 39.72 C 20.16 41.59 14.48 40.49 10.82 37.16 C 11.86 35.99 12.89 34.82 13.92 33.65 C 16.47 35.31 21.60 37.75 23.28 33.94 C 19.90 32.56 15.96 32.29 13.08 29.88 C 10.49 27.21 11.77 22.46 14.95 20.86 Z" />
<path fill="#bf17a0" opacity="1.00" d=" M 31.53 20.24 C 35.55 20.35 39.62 19.91 43.61 20.58 C 48.29 21.79 50.04 28.25 46.89 31.81 C 44.50 34.65 40.51 34.58 37.12 34.56 C 37.15 36.44 37.10 38.33 37.13 40.21 C 35.26 40.22 33.39 40.23 31.53 40.24 C 31.55 33.57 31.55 26.91 31.53 20.24 M 37.15 24.68 C 37.14 26.57 37.13 28.46 37.15 30.36 C 39.01 30.14 41.47 30.66 42.64 28.80 C 42.72 27.71 42.75 26.62 42.73 25.53 C 40.91 25.00 39.03 24.81 37.15 24.68 Z" />
</g>
</svg>
