<?xml version="1.0" encoding="UTF-8" ?>
<!DOCTYPE svg PUBLIC "-//W3C//DTD SVG 1.1//EN" "http://www.w3.org/Graphics/SVG/1.1/DTD/svg11.dtd">
<svg width="79pt" height="79pt" viewBox="0 0 79 79" version="1.1" xmlns="http://www.w3.org/2000/svg">
<g id="#f2f2f2ff">
<path fill="#f2f2f2" opacity="1.00" d=" M 0.00 0.00 L 79.00 0.00 L 79.00 79.00 L 0.00 79.00 L 0.00 0.00 M 4.00 4.00 C 4.00 27.67 4.00 51.33 4.00 75.00 C 27.67 75.00 51.33 75.00 75.00 75.00 C 75.00 51.33 75.00 27.67 75.00 4.00 C 51.33 4.00 27.67 4.00 4.00 4.00 Z" />
</g>
<g id="#22ddbcff">
<path fill="#22ddbc" opacity="1.00" d=" M 20.29 27.14 C 25.64 24.83 32.18 26.07 36.78 29.51 C 35.56 31.26 34.31 33.00 33.07 34.74 C 30.21 32.97 26.23 31.00 23.04 33.07 C 23.07 33.52 23.12 34.42 23.14 34.87 C 27.13 37.20 32.39 36.74 35.84 40.14 C 38.98 43.72 37.43 50.09 33.14 52.06 C 27.00 54.99 19.41 53.28 14.23 49.14 C 15.58 47.50 16.94 45.87 18.28 44.23 C 21.37 46.32 25.12 48.03 28.91 47.04 C 30.37 46.73 30.44 44.35 28.97 44.01 C 24.99 42.39 20.13 42.37 16.98 39.06 C 13.90 35.27 15.81 28.93 20.29 27.14 Z" />
<path fill="#22ddbc" opacity="1.00" d=" M 41.52 26.52 C 47.15 26.94 53.05 25.60 58.48 27.53 C 64.75 29.88 65.59 39.58 60.20 43.29 C 56.90 45.75 52.63 45.51 48.73 45.48 C 48.73 47.98 48.73 50.49 48.74 52.99 C 46.34 53.00 43.94 53.00 41.54 53.00 C 41.52 44.17 41.56 35.34 41.52 26.52 M 48.74 32.73 C 48.73 35.08 48.73 37.42 48.74 39.76 C 50.96 39.45 53.88 40.46 55.58 38.56 C 57.05 37.35 56.82 34.83 55.49 33.62 C 53.53 32.16 50.98 32.88 48.74 32.73 Z" />
</g>
</svg>
